# xmcd CD database file
#
# Track frame offsets:
#	150
#	16602
#	29042
#	41975
#	58900
#	70865
#	83180
#	91742
#	104565
#	118410
#	137190
#	151332
#	161545
#	173792
#	187410
#	197522
#
# Disc length: 2777 seconds
#
# Revision: 3
# Processed by: cddbd v1.5.2PL0 Copyright (c) Steve Scherf et al.
# Submitted via: CDex 1.70beta2
#
DISCID=e50ad710
DTITLE=Johnny Cash - San Quentin and Other Hits
DYEAR=1990
DGENRE=Country
TTITLE0=A Boy Named Sue
TTITLE1=Jackson
TTITLE2=San Quentin
TTITLE3=(Ghost) Riders In The Sky
TTITLE4=Ring Of Fire
TTITLE5=You're The Nearest Thing To Heaven
TTITLE6=The Rebel - Johnny Yuma
TTITLE7=The One On The Right Is On The Left
TTITLE8=It Ain't Me Babe
TTITLE9=The Ballad Of Ira Hayes
TTITLE10=Orange Blossom Special
TTITLE11=Goodbye Little Darlin', Goodbye
TTITLE12=Understand Your Man
TTITLE13=Don't Take Your Guns To Town
TTITLE14=Straight A's In Love
TTITLE15=I Love You Because
EXTD=YEAR: 1990
EXTT0=
EXTT1=With June Carter\n
EXTT2=
EXTT3=
EXTT4=
EXTT5=
EXTT6=
EXTT7=
EXTT8=
EXTT9=
EXTT10=
EXTT11=
EXTT12=
EXTT13=
EXTT14=
EXTT15=
PLAYORDER=
